<?xml version="1.0" standalone="no"?>
<!DOCTYPE svg PUBLIC "-//W3C//DTD SVG 20010904//EN"
 "http://www.w3.org/TR/2001/REC-SVG-20010904/DTD/svg10.dtd">
<svg version="1.0" xmlns="http://www.w3.org/2000/svg"
 width="2048pt" height="2048pt" viewBox="0 0 2048 2048"
 preserveAspectRatio="xMidYMid meet">

<g transform="translate(0,2048) scale(0.1,-0.1)"
fill="#d93025" stroke="none">

<path d="M6423 16661 l-3803 -1356 0 -30 c1 -66 1159 -10060 1167 -10062 4 -2
1455 -805 3223 -1784 1768 -980 3220 -1783 3225 -1785 6 -2 1464 801 3240
1785 l3230 1788 581 5039 c320 2772 579 5042 575 5046 -9 10 -7608 2718 -7623
2717 -7 -1 -1724 -611 -3815 -1358z m6192 -5788 c1302 -2931 2370 -5334 2372
-5340 4 -10 -177 -13 -885 -13 l-889 0 -479 1195 -478 1195 -2025 -2 -2024 -3
-477 -1190 -478 -1190 -891 -3 c-848 -2 -891 -1 -883 15 5 10 1077 2413 2382
5341 1305 2927 2376 5322 2380 5322 4 0 1072 -2397 2375 -5327z"/>
<path d="M9542 11058 l-690 -1663 694 -3 c382 -1 1006 -1 1388 0 l695 3 -691
1663 c-380 914 -694 1662 -698 1662 -4 0 -318 -748 -698 -1662z"/>
</g>
</svg>
